<svg xmlns="http://www.w3.org/2000/svg" viewBox="0 0 800 492" width="800" height="492">
<rect width="800" height="492" rx="10" fill="#ffffff" stroke="#d0d7de" stroke-width="1" />
<g transform="translate(20, 35)">
<text fill="#24292f" font-size="20" font-family="Segoe UI, Helvetica, Arial, sans-serif" font-weight="600">@codefl0w</text>
<text y="25" fill="#57606a" font-size="14" font-family="Segoe UI, Helvetica, Arial, sans-serif">Repo Statistics</text>
</g>
<text x="780" y="30" fill="#57606a" font-size="12" font-family="Segoe UI, Helvetica, Arial, sans-serif" text-anchor="end">8 Repositories</text>
<rect x="20" y="80" width="760" height="40" rx="6" fill="#f6f8fa"/>
<text x="32" y="105" fill="#24292f" font-size="14" font-family="Segoe UI, Helvetica, Arial, sans-serif" font-weight="500">QuickADB</text>
<rect x="690" y="88.0" width="80" height="24" rx="12" fill="#d29922"/>
<text x="730.0" y="104.0" fill="#ffffff" font-size="12" font-weight="bold" font-family="Segoe UI, Helvetica, Arial, sans-serif" text-anchor="middle">5.5k</text>
<rect x="20" y="124" width="760" height="40" rx="6" fill="#f6f8fa"/>
<text x="32" y="149" fill="#24292f" font-size="14" font-family="Segoe UI, Helvetica, Arial, sans-serif" font-weight="500">mtkclient-windows-installer</text>
<rect x="690" y="132.0" width="80" height="24" rx="12" fill="#6e7681"/>
<text x="730.0" y="148.0" fill="#ffffff" font-size="12" font-weight="bold" font-family="Segoe UI, Helvetica, Arial, sans-serif" text-anchor="middle">879</text>
<rect x="20" y="168" width="760" height="40" rx="6" fill="#f6f8fa"/>
<text x="32" y="193" fill="#24292f" font-size="14" font-family="Segoe UI, Helvetica, Arial, sans-serif" font-weight="500">unsuper</text>
<rect x="690" y="176.0" width="80" height="24" rx="12" fill="#6e7681"/>
<text x="730.0" y="192.0" fill="#ffffff" font-size="12" font-weight="bold" font-family="Segoe UI, Helvetica, Arial, sans-serif" text-anchor="middle">155</text>
<rect x="20" y="212" width="760" height="40" rx="6" fill="#f6f8fa"/>
<text x="32" y="237" fill="#24292f" font-size="14" font-family="Segoe UI, Helvetica, Arial, sans-serif" font-weight="500">Ares-Backlight-Changer</text>
<rect x="690" y="220.0" width="80" height="24" rx="12" fill="#6e7681"/>
<text x="730.0" y="236.0" fill="#ffffff" font-size="12" font-weight="bold" font-family="Segoe UI, Helvetica, Arial, sans-serif" text-anchor="middle">126</text>
<rect x="20" y="256" width="760" height="40" rx="6" fill="#f6f8fa"/>
<text x="32" y="281" fill="#24292f" font-size="14" font-family="Segoe UI, Helvetica, Arial, sans-serif" font-weight="500">AndroidFileHostScraper</text>
<rect x="690" y="264.0" width="80" height="24" rx="12" fill="#6e7681"/>
<text x="730.0" y="280.0" fill="#ffffff" font-size="12" font-weight="bold" font-family="Segoe UI, Helvetica, Arial, sans-serif" text-anchor="middle">87</text>
<rect x="20" y="300" width="760" height="40" rx="6" fill="#f6f8fa"/>
<text x="32" y="325" fill="#24292f" font-size="14" font-family="Segoe UI, Helvetica, Arial, sans-serif" font-weight="500">CodeFl0w.github.io</text>
<rect x="690" y="308.0" width="80" height="24" rx="12" fill="#6e7681"/>
<text x="730.0" y="324.0" fill="#ffffff" font-size="12" font-weight="bold" font-family="Segoe UI, Helvetica, Arial, sans-serif" text-anchor="middle">0</text>
<rect x="20" y="344" width="760" height="40" rx="6" fill="#f6f8fa"/>
<text x="32" y="369" fill="#24292f" font-size="14" font-family="Segoe UI, Helvetica, Arial, sans-serif" font-weight="500">codefl0w</text>
<rect x="690" y="352.0" width="80" height="24" rx="12" fill="#6e7681"/>
<text x="730.0" y="368.0" fill="#ffffff" font-size="12" font-weight="bold" font-family="Segoe UI, Helvetica, Arial, sans-serif" text-anchor="middle">0</text>
<rect x="20" y="388" width="760" height="40" rx="6" fill="#f6f8fa"/>
<text x="32" y="413" fill="#24292f" font-size="14" font-family="Segoe UI, Helvetica, Arial, sans-serif" font-weight="500">gh-boards</text>
<rect x="690" y="396.0" width="80" height="24" rx="12" fill="#6e7681"/>
<text x="730.0" y="412.0" fill="#ffffff" font-size="12" font-weight="bold" font-family="Segoe UI, Helvetica, Arial, sans-serif" text-anchor="middle">0</text>
<line x1="20" y1="437" x2="780" y2="437" stroke="#d0d7de" />
<text x="20" y="472" fill="#24292f" font-size="16" font-family="Segoe UI, Helvetica, Arial, sans-serif" font-weight="600">TOTAL</text>
<text x="750" y="472" fill="#0969da" font-size="18" font-family="Segoe UI, Helvetica, Arial, sans-serif" font-weight="bold" text-anchor="end">6.8k</text>
</svg>